<svg xmlns="http://www.w3.org/2000/svg" class="ionicon" viewBox="0 0 512 512" fill="#fff">
  <path d="M437.3,32H74.7C52.9,32,32,52.9,32,74.7V437.3C32,459.1,52.9,480,74.7,480H437.3c21.8,0,42.7-20.9,42.7-42.7V74.7C480,52.9,459.1,32,437.3,32ZM170.7,398.3H112V209.3h58.7ZM141.3,178.7a34.7,34.7,0,1,1,34.7-34.7A34.73,34.73,0,0,1,141.3,178.7ZM398.3,398.3H339.6V294.7c0-24.8-19.2-44.7-44.7-44.7s-44.7,19.9-44.7,44.7v103.6H192.4V209.3h58.7v25.6a80,80,0,0,1,68.8-35.2c46.3,0,78.4,37.5,78.4,86.5v112.1Z" />
</svg>
